<svg xmlns="http://www.w3.org/2000/svg" width="512" height="512" viewBox="0 0 512 512">
  <rect width="512" height="512" fill="#fff" rx="15%" ry="15%" />
  <path fill="#4CAF50" d="M389 330c-21-38-47-52-86-52-32 0-58 10-77 30-31-12-67-38-92-66 15-17 18-46 7-65-11-20-35-28-54-17-19 10-24 36-13 56 10 19 36 26 54 16 10 31 32 60 66 87-18 24-18 54 0 80 24 34 69 40 101 14 31-25 43-75 18-118 20-13 52-11 70 21 26 46-3 95-84 119-92 27-167-37-223-74-24-15-47-29-69-33-20-4-25 15-20 25 6 11 68 54 136 81 82 33 154 41 215 21 95-32 148-97 112-160-14-25-34-41-61-44zm-235-99c-20 0-36-32-36-72s16-72 36-72 36 32 36 72-16 72-36 72z"/>
</svg> 